<svg xmlns="http://www.w3.org/2000/svg" width="16.031" height="27" viewBox="0 0 16.031 27">
  <metadata><?xpacket begin="﻿" id="W5M0MpCehiHzreSzNTczkc9d"?>
<x:xmpmeta xmlns:x="adobe:ns:meta/" x:xmptk="Adobe XMP Core 5.6-c138 79.159824, 2016/09/14-01:09:01        ">
   <rdf:RDF xmlns:rdf="http://www.w3.org/1999/02/22-rdf-syntax-ns#">
      <rdf:Description rdf:about=""/>
   </rdf:RDF>
</x:xmpmeta>
                                                                                                    
                                                                                                    
                                                                                                    
                                                                                                    
                                                                                                    
                                                                                                    
                                                                                                    
                                                                                                    
                                                                                                    
                                                                                                    
                                                                                                    
                                                                                                    
                                                                                                    
                                                                                                    
                                                                                                    
                                                                                                    
                                                                                                    
                                                                                                    
                                                                                                    
                                                                                                    
                           
<?xpacket end="w"?></metadata>
<defs>
    <style>
      .cls-1 {
        fill-rule: evenodd;
      }
    </style>
  </defs>
  <path id="Forma_1_copy_7" data-name="Forma 1 copy 7" class="cls-1" d="M959.654,780.944l-7.522-6.98a0.441,0.441,0,0,1-.108-0.507,0.5,0.5,0,0,1,.463-0.287h1a0.521,0.521,0,0,1,.354.136l5.161,4.789V754.559a0.485,0.485,0,0,1,.5-0.465h1a0.484,0.484,0,0,1,.5.465V778.1l5.161-4.789a0.524,0.524,0,0,1,.355-0.136h1a0.5,0.5,0,0,1,.463.287,0.429,0.429,0,0,1,.038.178,0.449,0.449,0,0,1-.147.329l-7.521,6.98A0.531,0.531,0,0,1,959.654,780.944Z" transform="translate(-952 -754.094)"/>
</svg>
