<svg 
 xmlns="http://www.w3.org/2000/svg"
 xmlns:xlink="http://www.w3.org/1999/xlink"
 width="37px" height="16px">
<path fill-rule="evenodd"  fill="rgb(255, 255, 255)"
 d="M36.863,8.012 L29.906,0.980 C29.773,0.847 29.575,0.806 29.401,0.879 C29.227,0.951 29.115,1.122 29.115,1.312 L29.115,2.249 C29.115,2.374 29.164,2.493 29.251,2.581 L34.025,7.406 L0.464,7.406 C0.207,7.406 -0.000,7.615 -0.000,7.874 L-0.000,8.812 C-0.000,9.071 0.207,9.281 0.464,9.281 L34.025,9.281 L29.251,14.105 C29.164,14.193 29.115,14.312 29.115,14.437 L29.115,15.374 C29.115,15.564 29.228,15.735 29.401,15.807 C29.458,15.832 29.519,15.843 29.579,15.843 C29.699,15.843 29.818,15.795 29.906,15.706 L36.863,8.674 C37.045,8.491 37.045,8.195 36.863,8.012 Z"/>
</svg>