<svg 
 xmlns="http://www.w3.org/2000/svg"
 xmlns:xlink="http://www.w3.org/1999/xlink"
 width="20px" height="24px">
<path fill-rule="evenodd"  fill="rgb(20, 20, 23)"
 d="M19.995,20.744 L18.564,5.269 C18.533,4.926 18.232,4.665 17.879,4.665 L14.936,4.665 C14.895,2.084 12.698,-0.002 10.000,-0.002 C7.302,-0.002 5.105,2.084 5.064,4.665 L2.120,4.665 C1.763,4.665 1.466,4.926 1.436,5.269 L0.005,20.744 C0.005,20.763 -0.000,20.782 -0.000,20.803 C-0.000,22.564 1.681,23.998 3.750,23.998 L16.249,23.998 C18.319,23.998 20.000,22.564 20.000,20.803 C20.000,20.782 20.000,20.763 19.995,20.744 ZM10.000,1.323 C11.936,1.323 13.515,2.815 13.556,4.665 L6.443,4.665 C6.484,2.815 8.063,1.323 10.000,1.323 ZM16.249,22.673 L3.750,22.673 C2.453,22.673 1.400,21.848 1.380,20.832 L2.749,5.995 L5.059,5.995 L5.059,8.007 C5.059,8.376 5.365,8.670 5.748,8.670 C6.132,8.670 6.438,8.376 6.438,8.007 L6.438,5.995 L13.556,5.995 L13.556,8.007 C13.556,8.376 13.863,8.670 14.246,8.670 C14.629,8.670 14.936,8.376 14.936,8.007 L14.936,5.995 L17.246,5.995 L18.620,20.832 C18.600,21.848 17.542,22.673 16.249,22.673 Z"/>
</svg>