<svg xmlns="http://www.w3.org/2000/svg" width="21.5" height="22" viewBox="0 0 21.5 22">
  <defs>
    <style>
      .cls-1 {
        fill: #ff7070;
        fill-rule: evenodd;
      }
    </style>
  </defs>
  <path class="cls-1" d="M426.355,1187.1h0l-1.921-1.69v-4.82a0.427,0.427,0,0,0-.43-0.42h-5.512l-2.015-1.78a1.134,1.134,0,0,0-1.469,0L413,1180.17h-5.512a0.427,0.427,0,0,0-.43.42v4.82l-1.921,1.69s-0.006,0-.01.01-0.006,0-.008.01h0c-0.007.01-.012,0.01-0.018,0.02a0.226,0.226,0,0,1-.013.02s-0.009.01-.013,0.01a0.03,0.03,0,0,1-.013.02,0.186,0.186,0,0,1-.01.02,0.041,0.041,0,0,1-.011.02c0,0.01,0,.01-0.008.02s-0.007.02-.01,0.03,0,0,0,.01l-0.009.03,0,0.01a0.356,0.356,0,0,0-.006.04h0c0,0.02,0,.03,0,0.05v12.28c0,0.01,0,.03,0,0.04v0.01c0,0.01,0,.02,0,0.03s0,0.01,0,.02h0a0.035,0.035,0,0,0,.006.02,0.146,0.146,0,0,0,0,.02l0,0.01s0,0.01.006,0.01a0.186,0.186,0,0,0,.01.02l0,0.01s0,0.01.006,0.01a0.226,0.226,0,0,0,.013.02l0.073-.04-0.071.04c0,0.01.005,0.01,0.007,0.02a0.041,0.041,0,0,0,.02.02l0,0.01a0.536,0.536,0,0,0,.064.06,0.055,0.055,0,0,0,.031.02c0,0.01.006,0.01,0.012,0.01s0.016,0.01.024,0.02h0.014a0.027,0.027,0,0,0,.025.01l0.017,0.01c0.007,0,.015.01,0.022,0.01h0.018c0.008,0,.015.01,0.022,0.01h0.042a0.066,0.066,0,0,0,.042.01h20.65a0.066,0.066,0,0,0,.042-0.01h0.041c0.008,0,.016-0.01.023-0.01l-0.019-.08,0.025,0.08h0.012c0.008,0,.015-0.01.023-0.01l0.017-.01a0.032,0.032,0,0,0,.027-0.01h0.011a0.316,0.316,0,0,0,.027-0.02h0.009a0.442,0.442,0,0,0,.193-0.36v-12.28A0.429,0.429,0,0,0,426.355,1187.1Zm-20.309.34,1.008-.89v1.88Zm8.245-7.27,1.284-1.13a0.251,0.251,0,0,1,.334-0.01l1.288,1.14h-2.906Zm10.143,8.26v-1.88l1.008,0.89Zm1.2,0.02v10.22l-5.157-5.11Zm-13.847,5.53h7.9l5.335,5.29H406.458Zm0-.85-3.878-3.84v-8.27h15.66v8.27l-3.878,3.84h-7.9Zm-0.786.43-5.156,5.11v-10.22Z" transform="translate(-405 -1178.13)"/>
</svg>
