<svg xmlns="http://www.w3.org/2000/svg" width="17" height="12.03" viewBox="0 0 17 12.03">
  <defs>
    <style>
      .cls-1 {
        fill: #7d7d7d;
        fill-rule: evenodd;
      }
    </style>
  </defs>
  <path id="Forma_1_copy_2" data-name="Forma 1 copy 2" class="cls-1" d="M1514.9,4125.72l-5.32-5.64a0.324,0.324,0,0,0-.38-0.08,0.365,0.365,0,0,0-.22.34v0.76a0.4,0.4,0,0,0,.1.26l3.65,3.87h-14.38a0.368,0.368,0,0,0-.35.38v0.75a0.368,0.368,0,0,0,.35.38h14.38l-3.65,3.87a0.4,0.4,0,0,0-.1.26v0.75a0.379,0.379,0,0,0,.22.35,0.308,0.308,0,0,0,.13.03,0.325,0.325,0,0,0,.25-0.11l5.32-5.64A0.409,0.409,0,0,0,1514.9,4125.72Z" transform="translate(-1498 -4119.97)"/>
</svg>
