<svg xmlns="http://www.w3.org/2000/svg" width="17" height="11.96" viewBox="0 0 17 11.96">
  <defs>
    <style>
      .cls-1 {
        fill: #7d7d7d;
        fill-rule: evenodd;
      }
    </style>
  </defs>
  <path id="Forma_1_copy" data-name="Forma 1 copy" class="cls-1" d="M403.1,4125.58l5.313-5.63a0.346,0.346,0,0,1,.385-0.08,0.384,0.384,0,0,1,.219.35v0.75a0.37,0.37,0,0,1-.1.26l-3.645,3.86h14.374a0.367,0.367,0,0,1,.354.38v0.75a0.358,0.358,0,0,1-.354.37H405.272l3.645,3.86a0.394,0.394,0,0,1,.1.27v0.75a0.359,0.359,0,0,1-.219.34,0.323,0.323,0,0,1-.135.03,0.349,0.349,0,0,1-.25-0.11l-5.313-5.62A0.391,0.391,0,0,1,403.1,4125.58Z" transform="translate(-403 -4119.88)"/>
</svg>
