<svg xmlns="http://www.w3.org/2000/svg" width="19.531" height="27" viewBox="0 0 19.531 27">
  <defs>
    <style>
      .cls-1 {
        fill: #ff7070;
        fill-rule: evenodd;
      }
    </style>
  </defs>
  <path class="cls-1" d="M414.767,1054a9.737,9.737,0,0,0-9.778,9.67c0,6.74,9.018,16.74,9.4,17.16a0.5,0.5,0,0,0,.752,0c0.384-.42,9.4-10.42,9.4-17.16A9.736,9.736,0,0,0,414.767,1054Zm0.315,25.37-0.315.37-0.316-.37c-1.982-2.32-8.451-10.34-8.451-15.7a8.768,8.768,0,0,1,17.534,0C423.534,1069.03,417.065,1077.05,415.082,1079.37Zm-0.315-20.36a4.66,4.66,0,1,0,4.714,4.66A4.693,4.693,0,0,0,414.767,1059.01Zm0,8.32a3.665,3.665,0,1,1,3.7-3.66A3.685,3.685,0,0,1,414.767,1067.33Z" transform="translate(-405 -1054)"/>
</svg>
