<svg xmlns="http://www.w3.org/2000/svg" width="20" height="20" viewBox="0 0 20 20">
  <defs>
    <style>
      .cls-1 {
        fill: #7d7d7d;
        fill-rule: evenodd;
      }
    </style>
  </defs>
  <path class="cls-1" d="M952.386,4130.78a2.425,2.425,0,1,0,2.385,2.43A2.411,2.411,0,0,0,952.386,4130.78Zm7.614,0a2.425,2.425,0,1,0,2.385,2.43A2.411,2.411,0,0,0,960,4130.78Zm7.614,0a2.425,2.425,0,1,0,2.386,2.43A2.411,2.411,0,0,0,967.614,4130.78Zm-15.228-7.39a2.425,2.425,0,1,0,2.385,2.43A2.411,2.411,0,0,0,952.386,4123.39Zm7.614,0a2.425,2.425,0,1,0,2.385,2.43A2.411,2.411,0,0,0,960,4123.39Zm7.614,0a2.425,2.425,0,1,0,2.386,2.43A2.411,2.411,0,0,0,967.614,4123.39Zm-15.228-7.77a2.425,2.425,0,1,0,2.385,2.43A2.411,2.411,0,0,0,952.386,4115.62Zm7.614,0a2.425,2.425,0,1,0,2.385,2.43A2.411,2.411,0,0,0,960,4115.62Zm7.614,0a2.425,2.425,0,1,0,2.386,2.43A2.411,2.411,0,0,0,967.614,4115.62Z" transform="translate(-950 -4115.63)"/>
</svg>
