<svg xmlns="http://www.w3.org/2000/svg" width="21.5" height="21.97" viewBox="0 0 21.5 21.97">
  <defs>
    <style>
      .cls-1 {
        fill: #ff7070;
        fill-rule: evenodd;
      }
    </style>
  </defs>
  <path class="cls-1" d="M425.388,1137.24l-4.295-2.93a1.386,1.386,0,0,0-1.873.31l-1.253,1.65a0.387,0.387,0,0,1-.5.1l-0.238-.13a14.424,14.424,0,0,1-3.715-2.99,14.583,14.583,0,0,1-2.92-3.8l-0.131-.24a0.413,0.413,0,0,1,.1-0.52l1.608-1.28a1.453,1.453,0,0,0,.3-1.91l-2.864-4.4a1.379,1.379,0,0,0-1.877-.43l-1.8,1.11a2.7,2.7,0,0,0-1.221,1.62c-0.657,2.45-.172,6.66,5.868,12.84a26.329,26.329,0,0,0,6.285,4.95,9.956,9.956,0,0,0,4.569,1.28h0.028a6.335,6.335,0,0,0,1.674-.23,2.636,2.636,0,0,0,1.584-1.25l1.08-1.83A1.439,1.439,0,0,0,425.388,1137.24Zm-15.8-7.54,0.128,0.24a15.33,15.33,0,0,0,3.09,4.03,14.839,14.839,0,0,0,3.943,3.16l0.231,0.13a1.364,1.364,0,0,0,1.774-.37l1.25-1.64a0.388,0.388,0,0,1,.534-0.09l4.3,2.93a0.4,0.4,0,0,1,.12.54l-1.078,1.84a1.662,1.662,0,0,1-.992.79,5.3,5.3,0,0,1-1.454.19c-2.237,0-5.555-1.25-10.133-5.93-5.7-5.83-6.2-9.67-5.612-11.85a1.728,1.728,0,0,1,.772-1.02l1.8-1.1a0.387,0.387,0,0,1,.534.12l1.556,2.39,1.305,2a0.421,0.421,0,0,1-.086.55l-1.607,1.28A1.435,1.435,0,0,0,409.587,1129.7Zm7.081-5.32a5.958,5.958,0,0,1,5.867,6,0.5,0.5,0,1,0,1,0,7.074,7.074,0,0,0-2.012-4.96,6.807,6.807,0,0,0-4.851-2.06,0.506,0.506,0,0,0-.5.51A0.5,0.5,0,0,0,416.668,1124.38Zm0,2.17a3.809,3.809,0,0,1,3.745,3.83,0.5,0.5,0,1,0,1,0,4.816,4.816,0,0,0-4.742-4.85,0.506,0.506,0,0,0-.5.51A0.5,0.5,0,0,0,416.668,1126.55Zm0,2.17a1.656,1.656,0,0,1,1.624,1.66,0.5,0.5,0,1,0,1,0,2.667,2.667,0,0,0-2.62-2.68,0.506,0.506,0,0,0-.5.51A0.5,0.5,0,0,0,416.668,1128.72Z" transform="translate(-404.5 -1120.5)"/>
</svg>
