<svg width="50" height="50" viewBox="0 0 416 368" fill="none" xmlns="http://www.w3.org/2000/svg">
<path d="M324.632 203.212L324.632 349.142L172.233 208.765M324.632 203.212L292.769 203.298M324.632 203.212L347.614 203.298L390.733 170.82L324.632 170.82M172.233 208.765L127.777 170.672L167.233 170.82M172.233 208.765L65.0568 317.038L20.1163 317.038L147.215 188.868M210.233 170.82L292.769 96.2119L292.769 170.82M210.233 170.82L292.769 170.82M210.233 170.82L167.233 170.82M292.769 203.298L220.578 202.834L292.769 270.798L292.769 203.298ZM292.769 170.82L324.632 170.82M167.233 170.82L325.868 20.1441L324.632 170.82" stroke="white" stroke-width="16"/>
<path d="M324.632 203.212L324.632 349.142L172.233 208.765M324.632 203.212L292.769 203.298M324.632 203.212L347.614 203.298L390.733 170.82L324.632 170.82M172.233 208.765L127.777 170.672L167.233 170.82M172.233 208.765L65.0568 317.038L20.1163 317.038L147.215 188.868M210.233 170.82L292.769 96.2119L292.769 170.82M210.233 170.82L292.769 170.82M210.233 170.82L167.233 170.82M292.769 203.298L220.578 202.834L292.769 270.798L292.769 203.298ZM292.769 170.82L324.632 170.82M167.233 170.82L325.868 20.1441L324.632 170.82" stroke="#27292d" stroke-width="16"/>
</svg>
