<svg xmlns:dc="http://purl.org/dc/elements/1.1/" xmlns:cc="http://creativecommons.org/ns#" xmlns:rdf="http://www.w3.org/1999/02/22-rdf-syntax-ns#" xmlns:svg="http://www.w3.org/2000/svg" xmlns="http://www.w3.org/2000/svg" xmlns:sodipodi="http://sodipodi.sourceforge.net/DTD/sodipodi-0.dtd" xmlns:inkscape="http://www.inkscape.org/namespaces/inkscape" version="1.1" x="0px" y="0px" width="44" height="44" viewBox="0 0 100 125"><g transform="translate(0,-952.36218)"><path style="text-indent:0;text-transform:none;direction:ltr;block-progression:tb;baseline-shift:baseline;color:#000000;enable-background:accumulate;" d="m 88.999835,1002.3621 c 0,-0.4628 -0.2799,-1.0773 -0.5639,-1.3755 l -15.9997,-17.00026 c -0.747,-0.7723 -1.9572,-0.8618 -2.8281,-0.078 -0.7786,0.7007 -0.798,2.0673 -0.078,2.8282 l 12.8435,13.62516 -69.37347,0 c -1.1046,0 -2,0.8954 -2,2 0,1.1046 0.8954,2.0001 2,2.0001 l 69.37347,0 -12.8435,13.6252 c -0.7199,0.7608 -0.6688,2.0938 0.078,2.8281 0.7885,0.7752 2.0925,0.7062 2.8281,-0.078 l 15.9997,-17.0002 c 0.4701,-0.4611 0.556,-0.9052 0.5639,-1.3748 z" fill="#fff" fill-opacity="1" stroke="white" stroke-width="2"  marker="none" visibility="visible" display="inline" overflow="visible"/></g></svg>